<?xml version="1.0" encoding="UTF-8"?>
<svg xmlns="http://www.w3.org/2000/svg" xmlns:xlink="http://www.w3.org/1999/xlink" width="45px" height="45px" viewBox="0 0 45 45" version="1.1">
<g id="surface1">
<path style=" stroke:none;fill-rule:nonzero;fill:rgb(0%,0%,0%);fill-opacity:1;" d="M 43.125 32.8125 L 43.125 4.6875 L 1.875 4.6875 L 1.875 32.8125 L 0 32.8125 L 0 36.847656 L 2.3125 40.3125 L 42.6875 40.3125 L 45 36.847656 L 45 32.8125 Z M 3.75 6.5625 L 41.25 6.5625 L 41.25 32.8125 L 3.75 32.8125 Z M 43.125 36.277344 L 41.6875 38.4375 L 3.3125 38.4375 L 1.875 36.277344 L 1.875 34.6875 L 43.125 34.6875 Z M 43.125 36.277344 "/>
<path style=" stroke:none;fill-rule:nonzero;fill:rgb(0%,0%,0%);fill-opacity:1;" d="M 21.5625 35.625 L 23.4375 35.625 L 23.4375 37.5 L 21.5625 37.5 Z M 21.5625 35.625 "/>
<path style=" stroke:none;fill-rule:nonzero;fill:rgb(0%,0%,0%);fill-opacity:1;" d="M 17.8125 35.625 L 19.6875 35.625 L 19.6875 37.5 L 17.8125 37.5 Z M 17.8125 35.625 "/>
<path style=" stroke:none;fill-rule:nonzero;fill:rgb(0%,0%,0%);fill-opacity:1;" d="M 25.3125 35.625 L 27.1875 35.625 L 27.1875 37.5 L 25.3125 37.5 Z M 25.3125 35.625 "/>
<path style=" stroke:none;fill-rule:nonzero;fill:rgb(0%,0%,0%);fill-opacity:1;" d="M 9.375 16.875 L 9.375 10.3125 L 7.5 10.3125 L 7.5 11.25 L 6.5625 11.25 L 6.5625 13.125 L 7.5 13.125 L 7.5 16.875 L 6.5625 16.875 L 6.5625 18.75 L 10.3125 18.75 L 10.3125 16.875 Z M 9.375 16.875 "/>
<path style=" stroke:none;fill-rule:nonzero;fill:rgb(0%,0%,0%);fill-opacity:1;" d="M 23.4375 16.875 L 23.4375 10.3125 L 21.5625 10.3125 L 21.5625 11.25 L 20.625 11.25 L 20.625 13.125 L 21.5625 13.125 L 21.5625 16.875 L 20.625 16.875 L 20.625 18.75 L 24.375 18.75 L 24.375 16.875 Z M 23.4375 16.875 "/>
<path style=" stroke:none;fill-rule:nonzero;fill:rgb(0%,0%,0%);fill-opacity:1;" d="M 30 16.875 L 30 10.3125 L 28.125 10.3125 L 28.125 11.25 L 27.1875 11.25 L 27.1875 13.125 L 28.125 13.125 L 28.125 16.875 L 27.1875 16.875 L 27.1875 18.75 L 30.9375 18.75 L 30.9375 16.875 Z M 30 16.875 "/>
<path style=" stroke:none;fill-rule:nonzero;fill:rgb(0%,0%,0%);fill-opacity:1;" d="M 15 10.3125 C 13.449219 10.3125 12.1875 11.574219 12.1875 13.125 L 12.1875 15.9375 C 12.1875 17.488281 13.449219 18.75 15 18.75 C 16.550781 18.75 17.8125 17.488281 17.8125 15.9375 L 17.8125 13.125 C 17.8125 11.574219 16.550781 10.3125 15 10.3125 Z M 15.9375 15.9375 C 15.9375 16.457031 15.519531 16.875 15 16.875 C 14.480469 16.875 14.0625 16.457031 14.0625 15.9375 L 14.0625 13.125 C 14.0625 12.605469 14.480469 12.1875 15 12.1875 C 15.519531 12.1875 15.9375 12.605469 15.9375 13.125 Z M 15.9375 15.9375 "/>
<path style=" stroke:none;fill-rule:nonzero;fill:rgb(0%,0%,0%);fill-opacity:1;" d="M 35.625 10.3125 C 34.074219 10.3125 32.8125 11.574219 32.8125 13.125 L 32.8125 15.9375 C 32.8125 17.488281 34.074219 18.75 35.625 18.75 C 37.175781 18.75 38.4375 17.488281 38.4375 15.9375 L 38.4375 13.125 C 38.4375 11.574219 37.175781 10.3125 35.625 10.3125 Z M 36.5625 15.9375 C 36.5625 16.457031 36.144531 16.875 35.625 16.875 C 35.105469 16.875 34.6875 16.457031 34.6875 15.9375 L 34.6875 13.125 C 34.6875 12.605469 35.105469 12.1875 35.625 12.1875 C 36.144531 12.1875 36.5625 12.605469 36.5625 13.125 Z M 36.5625 15.9375 "/>
<path style=" stroke:none;fill-rule:nonzero;fill:rgb(0%,0%,0%);fill-opacity:1;" d="M 7.5 21.5625 L 9.375 21.5625 L 9.375 28.125 L 7.5 28.125 Z M 7.5 21.5625 "/>
<path style=" stroke:none;fill-rule:nonzero;fill:rgb(0%,0%,0%);fill-opacity:1;" d="M 7.5 29.0625 L 9.375 29.0625 L 9.375 30.9375 L 7.5 30.9375 Z M 7.5 29.0625 "/>
<path style=" stroke:none;fill-rule:nonzero;fill:rgb(0%,0%,0%);fill-opacity:1;" d="M 16.875 24.375 L 18.75 24.375 L 18.75 30.9375 L 16.875 30.9375 Z M 16.875 24.375 "/>
<path style=" stroke:none;fill-rule:nonzero;fill:rgb(0%,0%,0%);fill-opacity:1;" d="M 16.875 21.5625 L 18.75 21.5625 L 18.75 23.4375 L 16.875 23.4375 Z M 16.875 21.5625 "/>
<path style=" stroke:none;fill-rule:nonzero;fill:rgb(0%,0%,0%);fill-opacity:1;" d="M 30.9375 21.5625 L 32.8125 21.5625 L 32.8125 28.125 L 30.9375 28.125 Z M 30.9375 21.5625 "/>
<path style=" stroke:none;fill-rule:nonzero;fill:rgb(0%,0%,0%);fill-opacity:1;" d="M 30.9375 29.0625 L 32.8125 29.0625 L 32.8125 30.9375 L 30.9375 30.9375 Z M 30.9375 29.0625 "/>
<path style=" stroke:none;fill-rule:nonzero;fill:rgb(0%,0%,0%);fill-opacity:1;" d="M 35.625 24.375 L 37.5 24.375 L 37.5 30.9375 L 35.625 30.9375 Z M 35.625 24.375 "/>
<path style=" stroke:none;fill-rule:nonzero;fill:rgb(0%,0%,0%);fill-opacity:1;" d="M 35.625 21.5625 L 37.5 21.5625 L 37.5 23.4375 L 35.625 23.4375 Z M 35.625 21.5625 "/>
<path style=" stroke:none;fill-rule:nonzero;fill:rgb(0%,0%,0%);fill-opacity:1;" d="M 12.1875 29.0625 L 14.0625 29.0625 L 14.0625 30.9375 L 12.1875 30.9375 Z M 12.1875 29.0625 "/>
<path style=" stroke:none;fill-rule:nonzero;fill:rgb(0%,0%,0%);fill-opacity:1;" d="M 12.1875 21.5625 L 14.0625 21.5625 L 14.0625 25.3125 L 12.1875 25.3125 Z M 12.1875 21.5625 "/>
<path style=" stroke:none;fill-rule:nonzero;fill:rgb(0%,0%,0%);fill-opacity:1;" d="M 12.1875 26.25 L 14.0625 26.25 L 14.0625 28.125 L 12.1875 28.125 Z M 12.1875 26.25 "/>
<path style=" stroke:none;fill-rule:nonzero;fill:rgb(0%,0%,0%);fill-opacity:1;" d="M 26.25 29.0625 L 28.125 29.0625 L 28.125 30.9375 L 26.25 30.9375 Z M 26.25 29.0625 "/>
<path style=" stroke:none;fill-rule:nonzero;fill:rgb(0%,0%,0%);fill-opacity:1;" d="M 26.25 21.5625 L 28.125 21.5625 L 28.125 25.3125 L 26.25 25.3125 Z M 26.25 21.5625 "/>
<path style=" stroke:none;fill-rule:nonzero;fill:rgb(0%,0%,0%);fill-opacity:1;" d="M 26.25 26.25 L 28.125 26.25 L 28.125 28.125 L 26.25 28.125 Z M 26.25 26.25 "/>
<path style=" stroke:none;fill-rule:nonzero;fill:rgb(0%,0%,0%);fill-opacity:1;" d="M 21.5625 21.5625 L 23.4375 21.5625 L 23.4375 23.4375 L 21.5625 23.4375 Z M 21.5625 21.5625 "/>
<path style=" stroke:none;fill-rule:nonzero;fill:rgb(0%,0%,0%);fill-opacity:1;" d="M 21.5625 27.1875 L 23.4375 27.1875 L 23.4375 30.9375 L 21.5625 30.9375 Z M 21.5625 27.1875 "/>
<path style=" stroke:none;fill-rule:nonzero;fill:rgb(0%,0%,0%);fill-opacity:1;" d="M 21.5625 24.375 L 23.4375 24.375 L 23.4375 26.25 L 21.5625 26.25 Z M 21.5625 24.375 "/>
</g>
</svg>
